<?xml version="1.0" encoding="UTF-8" standalone="no"?>
<svg xmlns="http://www.w3.org/2000/svg" xmlns:xlink="http://www.w3.org/1999/xlink" width="270.55237" height="251.42876">
  <defs>
    <path id="a" d="m4422.4871 938.23193 3.5-.16003-4.5-1.82253c-8.2848-3.3554-49.4688-19.28697-52-20.11565-1.375-.45014-4.75-1.69175-7.5-2.75912-31.7845-12.33668-55.9722-21.20915-55.9722-21.20915s15.7313 15.56777 23.3066 21.25207c13.1153 9.84137 28.3895 16.94388 45.6656 21.23448 14.9448 3.71161 26.15 4.55611 47.5 3.57993zm19-2.44436s-3.9614-9.2562-7.6015-14.75125c-18.6044-28.085-54.4015-43.51332-96.3275-41.51653-11.9871.5709-28.8226 4.0639-28.8226 4.0639s2.1725 1.18069 5.3941 2.05739c14.0914 3.83468 50.3288 16.17456 66.8575 22.76688 9.9 3.94853 27 11.73323 38 17.29933 18.3183 9.26926 22.5 10.08028 22.5 10.08028zm-21-51.17535s-11.4018-15.66023-17.3143-21.60384c-16.3512-16.43712-33.5491-26.85382-57.6257-34.90374-10.2996-3.44362-35.06-8.31315-35.06-8.31315s23.6608 23.61219 35.8766 32.69132c18.6741 13.87902 39.8589 24.36893 60.8418 30.12649 8.6844 2.38292 13.2816 2.00292 13.2816 2.00292zM4352.537 867.363c-5.939-4.11483-23.1707-18.52388-29.7999-24.9185-3.9875-3.8464-7.25-6.68547-7.25-6.68547s2.7812 11.9544 4.5351 15.40642c5.3355 10.50144 17.9129 17.30262 32.9649 17.82561.9487.033 1.2701-.25006 1.2701-.25006s-.6683-.64919-1.7202-1.378zm-39.6496-1.03626s-1.3758-1.88232-3.691-3.15783c-13.6868-7.54068-33.6776-20.54729-47.9621-31.20555-20.0155-14.93434-39.073-31.37697-67.1911-57.97173-4.5227-4.27764-7.3785-6.35087-7.3785-6.35087s.5788 6.07878 1.6803 10.43445c10.5864 41.86392 56.5218 81.63382 101.6421 87.99982 8.0621 1.13748 22.9003.25171 22.9003.25171z"/>
  </defs>
  <g transform="translate(-1104.03366 -1777.8742) scale(3.54842)">
    <path fill="#d4d6cb" fill-rule="evenodd" d="m349.63735 503.20103-7.10527 16.55381 7.06415 12.67297.0411-29.22678zm-.0411 29.22678 24.48787-14.21261-17.34128 1.53946-7.14659 12.67315zm0 0 7.14659 12.67335 17.34128 1.53946-24.48787-14.21281zm0 0-7.06415 12.62547 7.10527 16.55381-.0411-29.17928zm0 0-24.40544-14.21261 9.62898 14.18877-9.62898 14.18896 24.40544-14.16512z" clip-rule="evenodd"/>
    <path fill="#425a87" fill-rule="evenodd" d="M349.63735 503.20065v29.20332l7.10528-12.64913-7.10528-16.55419zm0 29.20332 24.44675 14.18896-9.64532-14.18896 9.64532-14.18877-24.44675 14.18877zm0 0v29.2035l7.10528-16.55419-7.10528-12.64931zm0 0-24.44656 14.18896 17.3411-1.53965 7.10546-12.64931zm0 0-7.10546-12.64913-17.3411-1.53964 24.44656 14.18877z" clip-rule="evenodd"/>
    <path fill="#a2a6a7" fill-rule="evenodd" d="m343.7713 521.95691-6.35704 10.47106 6.35704 10.47093h11.70825l6.35723-10.4709-6.35723-10.47109h-5.866z" clip-rule="evenodd"/>
    <path fill="#d4d6cb" fill-rule="evenodd" d="m344.36354 523.01621-5.71393 9.41178 5.71393 9.41162h10.52379l5.7141-9.41162-5.7141-9.41178h-10.52376z" clip-rule="evenodd"/>
    <path fill="#425a87" d="m349.75803 539.52392.006-2.33687 4.58546-1.91531.005-5.2393h-6.75308v6.56148l-1.20168 1.60276h-3.03238c0-.68497.601-1.06526 1.05579-1.28213l-.00002-4.85956v-2.11306c0-.50113.0237-.66611-.24521-.93505-.42529-.42529-1.13426-.67774-.0286-1.86083l1.48142-1.58509c1.24728 1.03159 2.02657 1.55311 2.02657 2.84002l2.21875-2.2139 5.02851.0141c.87466.002 2.13889.81265 2.13632 1.70255v8.99072l-6.81428 2.8457c-.27109.1062-.46403.0282-.46829-.21623z"/>
    <path fill="#58789e" d="m349.22567 539.27813.006-2.33687 4.58546-1.91495.005-5.59589h-6.75309v6.91771l-1.20167 1.60276h-3.03238c0-.68497.601-1.06526 1.05579-1.28213l-.00002-4.85957v-2.11305c0-.50113.0237-.66611-.24521-.93505-.42529-.4253-1.13426-.67774-.0286-1.86083l1.48141-1.58509c1.03788.84356 2.02658 1.19689 2.02658 2.48379l2.21875-1.85767 5.0285.0141c.87467.002 2.1389.81266 2.13633 1.70255v8.99073l-6.81428 2.8457c-.27109.1062-.46403.0282-.46829-.21623z"/>
    <path fill="#425a87" d="M347.05302 571.65425c-1.022-.40343-1.46293-.84551-1.63652-1.6408l-.0821-.37595-.14626.3394c-.28164.65356-.97918 1.12671-1.68562 1.14336-.40263.009-1.50971-.40884-1.92969-.72917-.36999-.28221-.68687-.89549-.69004-1.33545l-.002-.29347-.98538-.12252c-2.19244-.2726-4.20217-.71606-6.12853-1.35228-3.5308-1.16613-5.36437-2.49222-6.44072-4.65808l-.49085-.98771-.54781-.22008c-1.59042-.63893-3.96339-2.05181-5.49871-3.27394-.90099-.71721-2.42096-2.25215-3.04448-3.07449-.74699-.98518-1.44279-2.18951-1.67469-2.89862-.31003-.94803-.32369-2.32113-.0295-2.96541l.19755-.4326-1.0415-1.24975c-1.81189-2.1742-2.83821-3.87805-3.48662-5.78838-.50781-1.49609-.57988-1.95111-.5754-3.63274.004-1.67669.14792-2.44916.71412-3.84536.40143-.98988.40257-1.00128.18322-1.83121-.68933-2.60811-.74183-5.90466-.13159-8.26335.46382-1.79276 1.37732-3.45847 2.53799-4.62783.67169-.67673 1.10298-.91285 1.78453-.977.54895-.0517.62135-.1225.6234-.60979.003-.68291.3921-2.62308.72708-3.62414 1.14413-3.41917 3.36208-5.88053 7.2186-8.01081.70177-.38765 1.03622-.64808 1.49471-1.16398 2.01383-2.26591 5.54422-3.73004 9.54754-3.95956.52873-.0303 1.2966-.0787 1.70637-.10747l.74504-.0523v.37577c0 1.09437-.84815 3.17313-1.7348 4.25187-.65466.7965-1.74157 1.76287-2.78065 2.47228-.67067.45789-.83823.62377-.94997.94048-.0746.21149-.24345.66573-.37517 1.00941-1.42503 3.71825-4.51528 6.65079-8.65735 8.21552l-.70272.26546.0658 1.31146c.14618 2.91289-.50115 5.63237-1.9344 8.12662-.45488.79162-1.8802 2.74888-2.23588 3.07034-.1944.17569-.19305.17916.331.85743.65899.8529 1.59067 2.73206 1.91825 3.86899.13711.47587.31871 1.48632.40356 2.24545.13253 1.18571.13765 1.59218.0364 2.88402-.0648.82707-.18268 1.84986-.2619 2.27285-.0792.42299-.16876.90225-.19895 1.06504-.0546.29413-.0482.29928 1.03845.83173 1.30544.63968 2.00952 1.15179 2.97965 2.1672 1.75591 1.8379 2.67011 3.82118 3.49437 7.58076.0408.18591.1314.21102.98326.27245 3.12655.22547 5.49735 1.19693 7.73314 3.16877.87036.76761.86585.76268 1.85364 2.02589.86053 1.10045 1.44775 1.99394 2.17771 3.31347.69982 1.26508.81024 1.38047.95586.99897.0577-.15115.29752-.78927.53296-1.41804.55533-1.48314.66239-1.65121 1.23292-1.93551.60513-.30155 1.02103-.29991 1.83711.007.99814.3757 1.34441.70642 1.53803 1.46897l.10721.42222.21848-.61153c.46377-1.29804 1.02811-1.76397 2.12229-1.75222.50297.005.76661.0724 1.35148.34353.86029.39878 1.27489.84491 1.44528 1.55515.10998.45844.12321.47391.21379.24988.44268-1.09481.59124-1.34926.92127-1.57798.56332-.39038 1.11067-.41645 2.02931-.0966.75876.26412 1.16767.57736 1.49214 1.143.0859.14975.15361.0882.51102-.46444 2.04718-3.16552 4.48436-5.24002 7.27294-6.19065.86645-.29538 1.88413-.48873 3.22049-.61187.66092-.0609 1.20883-.11528 1.21758-.12083.009-.006.13229-.52922.27454-1.16371.28936-1.29066.82164-2.85606 1.2912-3.79729 1.15366-2.31253 3.00996-4.14247 5.17554-5.10205.43829-.1942.81857-.37479.84508-.40129.0265-.0265-.0155-.34565-.0933-.70921-.35416-1.65507-.3928-2.05931-.39393-4.12185-.001-1.84465.0264-2.23791.21461-3.07713.38483-1.716 1.20795-3.52625 2.15148-4.73169.25778-.32932.46869-.62315.46869-.65294 0-.0298-.28456-.38045-.63236-.77923-1.80451-2.06909-3.05783-4.69419-3.51323-7.35855-.17022-.9959-.19566-1.4567-.15924-2.8845l.0433-1.69925-.58504-.20737c-1.0388-.3682-3.0619-1.42186-3.92245-2.04285-2.36454-1.70633-4.28423-4.30394-5.09234-6.89067-.21857-.69964-.22438-.70696-.94212-1.18763-1.91606-1.28319-3.09991-2.52661-3.88098-4.07626-.43703-.86703-.76103-3.04146-.76103-3.04146s3.53483.13911 4.74519.36363c3.05029.56584 5.7601 1.94333 7.3215 3.72179.43644.49712.7627.73965 1.7128 1.27326 4.67543 2.62588 7.03187 6.0597 7.62552 11.11198l.10732.91328.52873.0573c.71615.0777 1.18762.34331 1.88965 1.06483 1.21952 1.25335 2.1321 3.04104 2.56794 5.03042.48795 2.22721.39505 5.41869-.22259 7.64754-.25133.90695-.24801 1.05033.0389 1.67751.38.83075.72224 2.13793.83058 3.17236.21664 2.06836-.177 3.99808-1.28051 6.27737-.70531 1.45679-1.31576 2.32104-3.61449 5.11728-.20743.25231-.21269.28744-.0747.49811.35286.53852.36554 2.24635.0238 3.20961-.6739 1.89968-2.84546 4.52972-5.15758 6.24648-1.58809 1.17916-4.04714 2.58176-5.3062 3.02657-.30736.10859-.3829.19933-.55987.67252-.47288 1.26448-1.54035 2.50998-2.92449 3.4122-2.29625 1.49677-6.51101 2.70959-11.15724 3.21055-1.94637.20986-1.73122.11803-2.01469.85989-.27377.71643-.58542 1.07573-1.13061 1.30346-.51311.21435-.84932.18682-1.69326-.13864-1.05563-.40709-1.54855-.9643-1.55796-1.76116-.003-.22857-.13062.01-.5047.94133-.45665 1.13685-.53787 1.27314-.91571 1.53658-.5817.40555-1.52478.44398-2.4016.0979z"/>
    <path fill="#d6d7cc" d="M350.06715 561.80229c-.41477.007-.78446.23203-.91788.59831l-2.55148 7.00534c-.17786.48837.13374 1.03798.69853 1.23246l.45885.1581c.56479.19449 1.16267-.0421 1.34055-.53049l2.55147-7.00534c.17289-.47468-.11723-1.00618-.65218-1.21425-.65369 2.50728-2.25282 6.63344-3.10397 7.56994 1.59235-3.49954 2.40546-6.69303 2.58921-7.74917-.13805-.0463-.27802-.0673-.4131-.0649zm-4.85796.27101c-.38012.006-.71882.19821-.84108.51112l-2.43033 6.22012c-.16302.41721.1224.88692.64 1.05307l.42111.1352c.51759.16614 1.06564-.0361 1.22866-.45329l2.43034-6.22012c.1613-.41283-.11681-.87646-.6241-1.04713-.75179 2.44012-2.15862 6.0462-3.02284 6.93499 1.33691-2.87489 2.21987-5.76517 2.51957-7.09413-.1078-.0281-.21614-.0416-.32133-.0398zm9.69606.03313c-.34407.006-.65073.19428-.7614.50096l-2.23616 6.19639c-.14755.40891.11096.86915.57949 1.03199l.77729.27021c.46853.16283.96468-.0352 1.11224-.44409l2.23596-6.19658c.14756-.40891-.11077-.86915-.57928-1.03198l-.0793-.0276c-.85513 2.89179-2.10703 5.45029-2.7714 6.56195 1.34513-3.33984 1.96497-5.38691 2.2216-6.75307l-.14841-.0515c-.11713-.0407-.23597-.0588-.35065-.0567z" color="#000" overflow="visible" style="isolation:auto;mix-blend-mode:normal;solid-color:#000;solid-opacity:1"/>
    <g fill="#d4d6cb" transform="translate(-85.423996 476.99654) scale(.09613)">
      <use xlink:href="#a"/>
      <path d="M4301.902 845.61133c-13.0177-32.56256-37.9894-57.82318-69.0195-73.28386-9.0214-4.49492-36.9221-12.98303-36.9221-12.98303s.075 2.40321 4.1784 7.82101c25.6275 33.83242 55.1611 58.02145 91.8483 75.22667 6.1764 2.89653 9.6024 3.53666 9.6024 3.53666zm-2.0041-42.19588c-1.9152-8.39654-8.097-24.74808-12.8823-34.07538-8.6582-16.87593-20.6694-31.51984-35.1986-42.91352-9.6581-7.57378-26.1265-16.37129-26.1265-16.37129s12.2459 26.17357 20.6675 40.33439c13.3739 22.48806 27.8936 38.9589 44.0998 50.0258 4.6311 3.1625 9.2438 5.75 9.2438 5.75s.5413-1.2375.1963-2.75zm-65.765-44.03537-15.5948-31.05423s-2.0069 7.07442-.9867 11.62633c1.3562 6.05203 4.0049 10.22402 9.6402 15.18433 4.5722 4.02468 6.9413 4.24357 6.9413 4.24357zm-61.0827-41.28848c-1.3299-4.08438-3.8326-11.92615-5.5617-17.42615-8.6404-27.48454-29.9994-90.83598-29.9994-90.83598s-2.2962 18.24087-1.5683 27.56232c2.6731 34.23201 12.6923 59.73364 31.8454 81.05559 3.8447 4.28007 7.3461 7.42615 7.3461 7.42615s-.7322-3.69755-2.0621-7.78193zm28.0829-7.52383c1.5454-24.40781-5.1472-48.63125-19.5052-70.59863-6.4186-9.8204-12.13-16.82826-23.8789-29.29986l-9.4169-9.99617.6698 6.49617c3.5356 34.28682 17.1922 69.99732 39.9566 104.48159 5.7031 8.63916 10.2931 14.6633 10.2931 14.6633s1.2991-6.54806 1.8815-15.7464zm19.4956-29.15232c2.0322-10.12471 2.3474-14.51645 2.2792-31.75-.075-19.05826-.2257-20.55504-3.1908-31.7875-3.6819-13.94809-10.8001-29.40248-18.2787-39.68451l-5.3639-7.37465-.9104 3.42333c-1.3408 5.0417-.074 45.7948 1.7696 56.92333 2.496 15.06725 5.5171 27.53821 9.0555 37.38068 4.2778 11.89922 11.3326 24.61932 11.3326 24.61932s2.0098-5.2875 3.3069-11.75zm-37.5361-78.78211.1054-20.51989-2.1054 1.34929c-1.158.7421-3.1854 3.5663-4.5053 6.276-4.1504 8.5206-2.8081 22.41076 2.9468 30.49278 1.1491 1.61366 2.7711 2.92782 2.7711 2.92782s.7294-9.24006.7874-20.526zm-10.957-30.71789c18.0588-27.90364 22.6832-54.19838 16.2684-92.50541-1.7946-10.71687-7.5914-32.52685-7.5914-32.52685s-5.1912 8.87002-8.8449 20.9196c-3.8993 12.85944-6.9535 28.37121-8.5379 43.36266-1.3924 13.175-1.3977 45.60182-.01 57.5.5776 4.95 1.6761 13.11117 1.6761 13.11117s2.883-3.43945 7.039-9.86117zm-19.7038-54.75c10.613-58.75099 12.4908-71.86345 12.4908-71.86345s-9.2982 13.45204-13.4521 21.77652c-5.2288 10.47853-10.4056 26.09894-12.6225 38.08693-3.266 17.66067-2.1972 43.65332 2.3644 57.5l1.6471 5 1.7604-8.5c.9682-4.675 4.4836-23.575 7.8119-42zm48.1953 35.23446c27.3987-29.04411 40.2473-61.66434 39.7889-101.01803-.083-7.16027-1.147-10.94484-1.147-10.94484s-3.2428 2.92298-7.6845 9.17783c-16.1802 22.78487-26.8223 44.7678-32.4838 67.10245-4.0328 15.90911-5.6971 42.44813-5.6971 42.44813s3.7133-3.04449 7.2235-6.76554zm11.737-98.61671c2.3055-4.88524 3.9415-9.13261 3.6355-9.43861-.306-.30599-2.5651.41956-5.0202 1.61234-8.2502 4.00825-13.673 17.32781-11.4845 28.20852.4978 2.475.9379 4.95.9779 5.5.04.55 1.7889-3.05 3.8862-8s5.6996-12.99701 8.0051-17.88225zm4.6439-26.27167c25.3581-14.79045 41.08-33.33918 53.7967-63.46949 3.4245-8.1137 8.8416-41.87659 8.8416-41.87659s-14.4767 13.27919-20.9698 20.49093c-12.0749 13.41124-22.6978 28.92432-32.199 47.02117-8.2408 15.69631-18.132 42.4879-18.132 42.4879s4.274-2.09426 8.6625-4.65392zm44.1494-12.44637c30.6709-10.7692 55.179-31.54846 69.8818-59.24938 4.8046-9.05221 10.1188-24.31272 10.1188-24.31272s-11.1662 4.89721-25.6709 14.44874c-11.8127 7.77882-16.9287 11.97309-27.6045 22.63106-12.9988 12.97712-16.4257 17.12226-26.1104 31.58259-4.8853 7.29441-9.8816 18-9.8816 18s4.4105-1.39513 9.2668-3.10029zm-60.6703-9.88647c.825-1.23025 4.2359-5.89902 7.5798-10.37503 3.3438-4.47602 8.2624-11.28821 10.93-15.13821 2.6677-3.85 5.109-7.225 5.4252-7.5.7524-.65436 14.7364-19.15715 18.4522-24.41478 1.588-2.24687 7.2316-9.71019 12.5415-16.58522 8.8473-11.45521 10.2694-14.47148 10.2694-14.47148s-1.1964.4496-2.338 1.03795c-15.6619 8.07174-37.9143 28.01306-47.9088 42.93353-6.5622 9.79642-13.0091 24.19751-16.9717 37.91131-2.4175 8.36648-2.4326 12.11741-2.4326 12.11741s2.0658-1.95569 4.453-5.51548zm96-55.87857c1.925-1.86265 7.9525-7.04243 13.3945-11.51065l9.8945-8.12402-4.5921-.30265c-6.5275-.43021-11.6706 1.23229-16.439 5.31392-4.481 3.83552-8.7421 11.62005-9.8467 17.98873l-.6938 4 2.3913-1.98934c1.3152-1.09413 3.9663-3.51333 5.8913-5.37599zm36.199-31.60846c27.2717-4.11086 46.7001-18.51881 59.6658-44.24769 1.7243-3.42182 3.1352-7.23204 3.1352-7.23204s-17.7956 5.21635-31.6603 11.95507c-20.2535 9.84398-39.9412 24.25127-52.2668 38.24845l-2.4215 2.75 6.9243-.006c3.8084-.003 11.2889-.66379 16.6233-1.46789zm-25.2998-18.38563c9.1304-4.87268 28.8633-15.26462 43.8508-23.0932 14.9875-7.82857 27.7067-14.54657 27.7067-14.81723 0 0-14.5653.67699-24.9567 2.35919-22.625 3.66262-39.0634 12.49109-53.0051 28.46709-7.0928 8.12784-10.8809 15.94357-10.8809 15.94357s8.1548-3.98674 17.2852-8.85942z"/>
    </g>
    <g fill="#d4d6cb" transform="matrix(-.09613 0 0 .09613 783.91062 476.99654)">
      <use xlink:href="#a"/>
      <path d="M4301.902 845.61133c-13.0177-32.56256-37.9894-57.82318-69.0195-73.28386-9.0214-4.49492-36.9221-12.98303-36.9221-12.98303s.075 2.40321 4.1784 7.82101c25.6275 33.83242 55.1611 58.02145 91.8483 75.22667 6.1764 2.89653 9.6024 3.53666 9.6024 3.53666zm-2.0041-42.19588c-1.9152-8.39654-8.097-24.74808-12.8823-34.07538-8.6582-16.87593-20.6694-31.51984-35.1986-42.91352-9.6581-7.57378-26.1265-16.37129-26.1265-16.37129s12.2459 26.17357 20.6675 40.33439c13.3739 22.48806 27.8936 38.9589 44.0998 50.0258 4.6311 3.1625 9.2438 5.75 9.2438 5.75s.5413-1.2375.1963-2.75zm-65.765-44.03537-15.5948-31.05423s-2.0069 7.07442-.9867 11.62633c1.3562 6.05203 4.0049 10.22402 9.6402 15.18433 4.5722 4.02468 6.9413 4.24357 6.9413 4.24357zm-61.0827-41.28848c-1.3299-4.08438-3.8326-11.92615-5.5617-17.42615-8.6404-27.48454-29.9994-90.83598-29.9994-90.83598s-2.2962 18.24087-1.5683 27.56232c2.6731 34.23201 12.6923 59.73364 31.8454 81.05559 3.8447 4.28007 7.3461 7.42615 7.3461 7.42615s-.7322-3.69755-2.0621-7.78193zm28.0829-7.52383c1.5454-24.40781-5.1472-48.63125-19.5052-70.59863-6.4186-9.8204-12.13-16.82826-23.8789-29.29986l-9.4169-9.99617.6698 6.49617c3.5356 34.28682 17.1922 69.99732 39.9566 104.48159 5.7031 8.63916 10.2931 14.6633 10.2931 14.6633s1.2991-6.54806 1.8815-15.7464zm19.4956-29.15232c2.0322-10.12471 2.3474-14.51645 2.2792-31.75-.075-19.05826-.2257-20.55504-3.1908-31.7875-3.6819-13.94809-10.8001-29.40248-18.2787-39.68451l-5.3639-7.37465-.9104 3.42333c-1.3408 5.0417-.074 45.7948 1.7696 56.92333 2.496 15.06725 5.5171 27.53821 9.0555 37.38068 4.2778 11.89922 11.3326 24.61932 11.3326 24.61932s2.0098-5.2875 3.3069-11.75zm-37.5361-78.78211.1054-20.51989-2.1054 1.34929c-1.158.7421-3.1854 3.5663-4.5053 6.276-4.1504 8.5206-2.8081 22.41076 2.9468 30.49278 1.1491 1.61366 2.7711 2.92782 2.7711 2.92782s.7294-9.24006.7874-20.526zm-10.957-30.71789c18.0588-27.90364 22.6832-54.19838 16.2684-92.50541-1.7946-10.71687-7.5914-32.52685-7.5914-32.52685s-5.1912 8.87002-8.8449 20.9196c-3.8993 12.85944-6.9535 28.37121-8.5379 43.36266-1.3924 13.175-1.3977 45.60182-.01 57.5.5776 4.95 1.6761 13.11117 1.6761 13.11117s2.883-3.43945 7.039-9.86117zm-19.7038-54.75c10.613-58.75099 12.4908-71.86345 12.4908-71.86345s-9.2982 13.45204-13.4521 21.77652c-5.2288 10.47853-10.4056 26.09894-12.6225 38.08693-3.266 17.66067-2.1972 43.65332 2.3644 57.5l1.6471 5 1.7604-8.5c.9682-4.675 4.4836-23.575 7.8119-42zm48.1953 35.23446c27.3987-29.04411 40.2473-61.66434 39.7889-101.01803-.083-7.16027-1.147-10.94484-1.147-10.94484s-3.2428 2.92298-7.6845 9.17783c-16.1802 22.78487-26.8223 44.7678-32.4838 67.10245-4.0328 15.90911-5.6971 42.44813-5.6971 42.44813s3.7133-3.04449 7.2235-6.76554zm11.737-98.61671c2.3055-4.88524 3.6355-9.43861 3.6355-9.43861s-2.5651.41956-5.0202 1.61234c-8.2502 4.00825-13.673 17.32781-11.4845 28.20852.4978 2.475.9779 5.5.9779 5.5s1.7889-3.05 3.8862-8 5.6996-12.99701 8.0051-17.88225zm4.6439-26.27167c25.3581-14.79045 41.08-33.33918 53.7967-63.46949 3.4245-8.1137 8.8416-41.87659 8.8416-41.87659s-14.4767 13.27919-20.9698 20.49093c-12.0749 13.41124-22.6978 28.92432-32.199 47.02117-8.2408 15.69631-18.132 42.4879-18.132 42.4879s4.274-2.09426 8.6625-4.65392zm44.1494-12.44637c30.6709-10.7692 55.179-31.54846 69.8818-59.24938 4.8046-9.05221 10.1188-24.31272 10.1188-24.31272s-11.1662 4.89721-25.6709 14.44874c-11.8127 7.77882-16.9287 11.97309-27.6045 22.63106-12.9988 12.97712-16.4257 17.12226-26.1104 31.58259-4.8853 7.29441-9.8816 18-9.8816 18s4.4105-1.39513 9.2668-3.10029zm-60.6703-9.88647c.825-1.23025 4.2359-5.89902 7.5798-10.37503 3.3438-4.47602 8.2624-11.28821 10.93-15.13821 2.6677-3.85 5.109-7.225 5.4252-7.5.7524-.65436 14.7364-19.15715 18.4522-24.41478 1.588-2.24687 7.2316-9.71019 12.5415-16.58522 8.8473-11.45521 10.2694-14.47148 10.2694-14.47148s-1.1964.4496-2.338 1.03795c-15.6619 8.07174-37.9143 28.01306-47.9088 42.93353-6.5622 9.79642-13.0091 24.19751-16.9717 37.91131-2.4175 8.36648-2.4326 12.11741-2.4326 12.11741s2.0658-1.95569 4.453-5.51548zm96-55.87857c1.925-1.86265 7.9525-7.04243 13.3945-11.51065l9.8945-8.12402-4.5921-.30265c-6.5275-.43021-11.6706 1.23229-16.439 5.31392-4.481 3.83552-8.7421 11.62005-9.8467 17.98873l-.6938 4 2.3913-1.98934c1.3152-1.09413 3.9663-3.51333 5.8913-5.37599zm36.199-31.60846c27.2717-4.11086 46.7001-18.51881 59.6658-44.24769 1.7243-3.42182 3.1352-7.23204 3.1352-7.23204s-17.7956 5.21635-31.6603 11.95507c-20.2535 9.84398-39.9412 24.25127-52.2668 38.24845l-2.4215 2.75 6.9243-.006c3.8084-.003 11.2889-.66379 16.6233-1.46789zm-25.2998-18.38563c9.1304-4.87268 28.8633-15.26462 43.8508-23.0932 14.9875-7.82857 27.7067-14.54657 27.7067-14.81723 0 0-14.5653.67699-24.9567 2.35919-22.625 3.66262-39.0634 12.49109-53.0051 28.46709-7.0928 8.12784-10.8809 15.94357-10.8809 15.94357s8.1548-3.98674 17.2852-8.85942z"/>
    </g>
    <path fill="#d4d6cb" fill-rule="evenodd" d="M349.63754 532.3805v.00038-.00038zm0 27.93048v.00038-.00038z" clip-rule="evenodd"/>
  </g>
</svg>